<svg width="355" height="95" viewBox="0 0 355 95" fill="none" xmlns="http://www.w3.org/2000/svg">
<path d="M10.2727 1.45454V48H4.90909V1.45454H10.2727ZM29.8893 48.8182C27.6772 48.8182 25.6696 48.4015 23.8666 47.5682C22.0636 46.7197 20.6317 45.5 19.5711 43.9091C18.5105 42.303 17.9802 40.3636 17.9802 38.0909C17.9802 36.0909 18.3742 34.4697 19.162 33.2273C19.9499 31.9697 21.003 30.9848 22.3211 30.2727C23.6393 29.5606 25.0939 29.0303 26.6848 28.6818C28.2908 28.3182 29.9045 28.0303 31.5257 27.8182C33.6469 27.5455 35.3666 27.3409 36.6848 27.2045C38.0181 27.053 38.9878 26.803 39.5939 26.4545C40.2151 26.1061 40.5257 25.5 40.5257 24.6364V24.4545C40.5257 22.2121 39.912 20.4697 38.6848 19.2273C37.4727 17.9848 35.6317 17.3636 33.162 17.3636C30.6014 17.3636 28.5939 17.9242 27.1393 19.0455C25.6848 20.1667 24.662 21.3636 24.0711 22.6364L18.9802 20.8182C19.8893 18.697 21.1014 17.0455 22.6166 15.8636C24.1469 14.6667 25.8136 13.8333 27.6166 13.3636C29.4348 12.8788 31.2227 12.6364 32.9802 12.6364C34.1014 12.6364 35.3893 12.7727 36.8439 13.0455C38.3136 13.303 39.7302 13.8409 41.0939 14.6591C42.4727 15.4773 43.6166 16.7121 44.5257 18.3636C45.4348 20.0152 45.8893 22.2273 45.8893 25V48H40.5257V43.2727H40.253C39.8893 44.0303 39.2833 44.8409 38.4348 45.7045C37.5863 46.5682 36.4575 47.303 35.0484 47.9091C33.6393 48.5152 31.9196 48.8182 29.8893 48.8182ZM30.7075 44C32.8287 44 34.6166 43.5833 36.0711 42.75C37.5408 41.9167 38.6469 40.8409 39.3893 39.5227C40.1469 38.2045 40.5257 36.8182 40.5257 35.3636V30.4545C40.2984 30.7273 39.7984 30.9773 39.0257 31.2045C38.2681 31.4167 37.3893 31.6061 36.3893 31.7727C35.4045 31.9242 34.4423 32.0606 33.503 32.1818C32.5787 32.2879 31.8287 32.3788 31.253 32.4545C29.859 32.6364 28.556 32.9318 27.3439 33.3409C26.1469 33.7348 25.1772 34.3333 24.4348 35.1364C23.7075 35.9242 23.3439 37 23.3439 38.3636C23.3439 40.2273 24.0333 41.6364 25.412 42.5909C26.806 43.5303 28.5711 44 30.7075 44ZM79.9264 20.9091L75.1082 22.2727C74.8052 21.4697 74.3582 20.6894 73.7673 19.9318C73.1915 19.1591 72.4036 18.5227 71.4036 18.0227C70.4036 17.5227 69.1233 17.2727 67.5627 17.2727C65.4264 17.2727 63.6461 17.7652 62.2218 18.75C60.8127 19.7197 60.1082 20.9545 60.1082 22.4545C60.1082 23.7879 60.593 24.8409 61.5627 25.6136C62.5324 26.3864 64.0476 27.0303 66.1082 27.5455L71.29 28.8182C74.4112 29.5758 76.737 30.7348 78.2673 32.2955C79.7976 33.8409 80.5627 35.8333 80.5627 38.2727C80.5627 40.2727 79.987 42.0606 78.8355 43.6364C77.6991 45.2121 76.1082 46.4545 74.0627 47.3636C72.0173 48.2727 69.6385 48.7273 66.9264 48.7273C63.3658 48.7273 60.4188 47.9545 58.0855 46.4091C55.7521 44.8636 54.2748 42.6061 53.6536 39.6364L58.7445 38.3636C59.2294 40.2424 60.1461 41.6515 61.4945 42.5909C62.8582 43.5303 64.6385 44 66.8355 44C69.3355 44 71.3203 43.4697 72.79 42.4091C74.2749 41.3333 75.0173 40.0455 75.0173 38.5455C75.0173 37.3333 74.593 36.3182 73.7445 35.5C72.8961 34.6667 71.593 34.0455 69.8355 33.6364L64.0173 32.2727C60.8203 31.5152 58.4718 30.3409 56.9718 28.75C55.487 27.1439 54.7445 25.1364 54.7445 22.7273C54.7445 20.7576 55.2976 19.0152 56.4036 17.5C57.5248 15.9848 59.0476 14.7955 60.9718 13.9318C62.9112 13.0682 65.1082 12.6364 67.5627 12.6364C71.0173 12.6364 73.7294 13.3939 75.6991 14.9091C77.6839 16.4242 79.093 18.4242 79.9264 20.9091ZM98.4293 48.8182C96.2172 48.8182 94.2096 48.4015 92.4066 47.5682C90.6036 46.7197 89.1717 45.5 88.1111 43.9091C87.0505 42.303 86.5202 40.3636 86.5202 38.0909C86.5202 36.0909 86.9142 34.4697 87.702 33.2273C88.4899 31.9697 89.543 30.9848 90.8611 30.2727C92.1793 29.5606 93.6339 29.0303 95.2248 28.6818C96.8308 28.3182 98.4445 28.0303 100.066 27.8182C102.187 27.5455 103.907 27.3409 105.225 27.2045C106.558 27.053 107.528 26.803 108.134 26.4545C108.755 26.1061 109.066 25.5 109.066 24.6364V24.4545C109.066 22.2121 108.452 20.4697 107.225 19.2273C106.013 17.9848 104.172 17.3636 101.702 17.3636C99.1414 17.3636 97.1339 17.9242 95.6793 19.0455C94.2248 20.1667 93.202 21.3636 92.6111 22.6364L87.5202 20.8182C88.4293 18.697 89.6414 17.0455 91.1566 15.8636C92.6869 14.6667 94.3536 13.8333 96.1566 13.3636C97.9748 12.8788 99.7626 12.6364 101.52 12.6364C102.641 12.6364 103.929 12.7727 105.384 13.0455C106.854 13.303 108.27 13.8409 109.634 14.6591C111.013 15.4773 112.157 16.7121 113.066 18.3636C113.975 20.0152 114.429 22.2273 114.429 25V48H109.066V43.2727H108.793C108.429 44.0303 107.823 44.8409 106.975 45.7045C106.126 46.5682 104.997 47.303 103.588 47.9091C102.179 48.5152 100.46 48.8182 98.4293 48.8182ZM99.2475 44C101.369 44 103.157 43.5833 104.611 42.75C106.081 41.9167 107.187 40.8409 107.929 39.5227C108.687 38.2045 109.066 36.8182 109.066 35.3636V30.4545C108.838 30.7273 108.338 30.9773 107.566 31.2045C106.808 31.4167 105.929 31.6061 104.929 31.7727C103.944 31.9242 102.982 32.0606 102.043 32.1818C101.119 32.2879 100.369 32.3788 99.793 32.4545C98.399 32.6364 97.096 32.9318 95.8839 33.3409C94.6869 33.7348 93.7172 34.3333 92.9748 35.1364C92.2475 35.9242 91.8839 37 91.8839 38.3636C91.8839 40.2273 92.5733 41.6364 93.952 42.5909C95.346 43.5303 97.1111 44 99.2475 44ZM129.103 1.45454V48H123.739V1.45454H129.103ZM143.81 1.45454V48H138.447V1.45454H143.81ZM153.154 48V13.0909H158.518V48H153.154ZM155.881 7.27273C154.836 7.27273 153.934 6.91667 153.177 6.20454C152.434 5.49242 152.063 4.63636 152.063 3.63636C152.063 2.63636 152.434 1.7803 153.177 1.06818C153.934 0.35606 154.836 0 155.881 0C156.927 0 157.821 0.35606 158.563 1.06818C159.321 1.7803 159.7 2.63636 159.7 3.63636C159.7 4.63636 159.321 5.49242 158.563 6.20454C157.821 6.91667 156.927 7.27273 155.881 7.27273ZM178.134 48.8182C175.922 48.8182 173.915 48.4015 172.112 47.5682C170.309 46.7197 168.877 45.5 167.816 43.9091C166.756 42.303 166.225 40.3636 166.225 38.0909C166.225 36.0909 166.619 34.4697 167.407 33.2273C168.195 31.9697 169.248 30.9848 170.566 30.2727C171.884 29.5606 173.339 29.0303 174.93 28.6818C176.536 28.3182 178.149 28.0303 179.771 27.8182C181.892 27.5455 183.612 27.3409 184.93 27.2045C186.263 27.053 187.233 26.803 187.839 26.4545C188.46 26.1061 188.771 25.5 188.771 24.6364V24.4545C188.771 22.2121 188.157 20.4697 186.93 19.2273C185.718 17.9848 183.877 17.3636 181.407 17.3636C178.846 17.3636 176.839 17.9242 175.384 19.0455C173.93 20.1667 172.907 21.3636 172.316 22.6364L167.225 20.8182C168.134 18.697 169.346 17.0455 170.862 15.8636C172.392 14.6667 174.059 13.8333 175.862 13.3636C177.68 12.8788 179.468 12.6364 181.225 12.6364C182.346 12.6364 183.634 12.7727 185.089 13.0455C186.559 13.303 187.975 13.8409 189.339 14.6591C190.718 15.4773 191.862 16.7121 192.771 18.3636C193.68 20.0152 194.134 22.2273 194.134 25V48H188.771V43.2727H188.498C188.134 44.0303 187.528 44.8409 186.68 45.7045C185.831 46.5682 184.703 47.303 183.293 47.9091C181.884 48.5152 180.165 48.8182 178.134 48.8182ZM178.952 44C181.074 44 182.862 43.5833 184.316 42.75C185.786 41.9167 186.892 40.8409 187.634 39.5227C188.392 38.2045 188.771 36.8182 188.771 35.3636V30.4545C188.543 30.7273 188.043 30.9773 187.271 31.2045C186.513 31.4167 185.634 31.6061 184.634 31.7727C183.649 31.9242 182.687 32.0606 181.748 32.1818C180.824 32.2879 180.074 32.3788 179.498 32.4545C178.104 32.6364 176.801 32.9318 175.589 33.3409C174.392 33.7348 173.422 34.3333 172.68 35.1364C171.952 35.9242 171.589 37 171.589 38.3636C171.589 40.2273 172.278 41.6364 173.657 42.5909C175.051 43.5303 176.816 44 178.952 44ZM208.808 27V48H203.444V13.0909H208.626V18.5455H209.08C209.899 16.7727 211.141 15.3485 212.808 14.2727C214.474 13.1818 216.626 12.6364 219.262 12.6364C221.626 12.6364 223.694 13.1212 225.467 14.0909C227.24 15.0455 228.618 16.5 229.603 18.4545C230.588 20.3939 231.08 22.8485 231.08 25.8182V48H225.717V26.1818C225.717 23.4394 225.005 21.303 223.58 19.7727C222.156 18.2273 220.202 17.4545 217.717 17.4545C216.005 17.4545 214.474 17.8258 213.126 18.5682C211.793 19.3106 210.74 20.3939 209.967 21.8182C209.194 23.2424 208.808 24.9697 208.808 27ZM244.788 48.5C243.409 48.5 242.227 48.0152 241.242 47.0455C240.258 46.0758 239.773 44.8939 239.788 43.5C239.773 42.1364 240.258 40.9697 241.242 40C242.227 39.0303 243.409 38.5455 244.788 38.5455C246.121 38.5455 247.28 39.0303 248.265 40C249.265 40.9697 249.773 42.1364 249.788 43.5C249.773 44.4242 249.53 45.2652 249.061 46.0227C248.606 46.7803 248 47.3864 247.242 47.8409C246.5 48.2803 245.682 48.5 244.788 48.5ZM257.802 48V13.0909H265.666V19.0227H266.075C266.802 17.0227 268.007 15.4621 269.689 14.3409C271.37 13.2045 273.378 12.6364 275.711 12.6364C278.075 12.6364 280.067 13.2121 281.689 14.3636C283.325 15.5 284.477 17.053 285.143 19.0227H285.507C286.28 17.0833 287.583 15.5379 289.416 14.3864C291.264 13.2197 293.454 12.6364 295.984 12.6364C299.196 12.6364 301.817 13.6515 303.848 15.6818C305.878 17.7121 306.893 20.6742 306.893 24.5682V48H298.643V25.8409C298.643 23.6742 298.067 22.0909 296.916 21.0909C295.764 20.0758 294.355 19.5682 292.689 19.5682C290.704 19.5682 289.151 20.1894 288.03 21.4318C286.923 22.6591 286.37 24.2576 286.37 26.2273V48H278.302V25.5C278.302 23.697 277.757 22.2576 276.666 21.1818C275.59 20.1061 274.181 19.5682 272.439 19.5682C271.257 19.5682 270.181 19.8712 269.211 20.4773C268.242 21.0682 267.469 21.9091 266.893 23C266.317 24.0758 266.03 25.3333 266.03 26.7727V48H257.802ZM330.214 48.6818C326.714 48.6818 323.692 47.9545 321.146 46.5C318.616 45.0303 316.669 42.9545 315.305 40.2727C313.942 37.5758 313.26 34.4015 313.26 30.75C313.26 27.1591 313.942 24.0076 315.305 21.2955C316.684 18.5682 318.608 16.447 321.078 14.9318C323.548 13.4015 326.449 12.6364 329.783 12.6364C331.934 12.6364 333.964 12.9848 335.873 13.6818C337.798 14.3636 339.495 15.4242 340.964 16.8636C342.449 18.303 343.616 20.1364 344.464 22.3636C345.313 24.5758 345.737 27.2121 345.737 30.2727V32.7955H317.123V27.25H337.851C337.836 25.6742 337.495 24.2727 336.828 23.0455C336.161 21.803 335.229 20.8258 334.033 20.1136C332.851 19.4015 331.472 19.0455 329.896 19.0455C328.214 19.0455 326.737 19.4545 325.464 20.2727C324.192 21.0758 323.199 22.1364 322.487 23.4545C321.79 24.7576 321.434 26.1894 321.419 27.75V32.5909C321.419 34.6212 321.79 36.3636 322.533 37.8182C323.275 39.2576 324.313 40.3636 325.646 41.1364C326.979 41.8939 328.54 42.2727 330.328 42.2727C331.525 42.2727 332.608 42.1061 333.578 41.7727C334.548 41.4242 335.389 40.9167 336.101 40.25C336.813 39.5833 337.351 38.7576 337.714 37.7727L345.396 38.6364C344.911 40.6667 343.987 42.4394 342.623 43.9545C341.275 45.4545 339.548 46.6212 337.442 47.4545C335.336 48.2727 332.926 48.6818 330.214 48.6818Z" fill="#154200"/>
<path d="M0.440341 69.4545H3.41619L6.97443 75.8892H7.11648L10.6747 69.4545H13.6506L8.35938 78.5739V84H5.73153V78.5739L0.440341 69.4545ZM27.5435 76.7273C27.5435 78.2945 27.25 79.6368 26.6629 80.7543C26.0805 81.867 25.285 82.7192 24.2765 83.3111C23.2727 83.9029 22.134 84.1989 20.8603 84.1989C19.5866 84.1989 18.4455 83.9029 17.437 83.3111C16.4332 82.7145 15.6378 81.8598 15.0506 80.7472C14.4683 79.6297 14.1771 78.2898 14.1771 76.7273C14.1771 75.16 14.4683 73.8201 15.0506 72.7074C15.6378 71.59 16.4332 70.7353 17.437 70.1435C18.4455 69.5516 19.5866 69.2557 20.8603 69.2557C22.134 69.2557 23.2727 69.5516 24.2765 70.1435C25.285 70.7353 26.0805 71.59 26.6629 72.7074C27.25 73.8201 27.5435 75.16 27.5435 76.7273ZM24.8944 76.7273C24.8944 75.6241 24.7216 74.6937 24.3759 73.9361C24.035 73.1738 23.5615 72.5985 22.9555 72.2102C22.3494 71.8172 21.651 71.6207 20.8603 71.6207C20.0696 71.6207 19.3712 71.8172 18.7651 72.2102C18.1591 72.5985 17.6832 73.1738 17.3376 73.9361C16.9967 74.6937 16.8262 75.6241 16.8262 76.7273C16.8262 77.8305 16.9967 78.7633 17.3376 79.5256C17.6832 80.2831 18.1591 80.8584 18.7651 81.2514C19.3712 81.6397 20.0696 81.8338 20.8603 81.8338C21.651 81.8338 22.3494 81.6397 22.9555 81.2514C23.5615 80.8584 24.035 80.2831 24.3759 79.5256C24.7216 78.7633 24.8944 77.8305 24.8944 76.7273ZM39.0537 69.4545H41.6886V78.9574C41.6886 79.9991 41.4424 80.9152 40.95 81.706C40.4623 82.4967 39.7758 83.1146 38.8903 83.5597C38.0049 84 36.9704 84.2202 35.7866 84.2202C34.5982 84.2202 33.5613 84 32.6759 83.5597C31.7904 83.1146 31.1039 82.4967 30.6162 81.706C30.1285 80.9152 29.8847 79.9991 29.8847 78.9574V69.4545H32.5196V78.7372C32.5196 79.3433 32.6522 79.883 32.9173 80.3565C33.1872 80.83 33.566 81.2017 34.0537 81.4716C34.5414 81.7367 35.119 81.8693 35.7866 81.8693C36.4543 81.8693 37.0319 81.7367 37.5196 81.4716C38.012 81.2017 38.3908 80.83 38.656 80.3565C38.9211 79.883 39.0537 79.3433 39.0537 78.7372V69.4545ZM44.4026 84V69.4545H49.8572C50.9746 69.4545 51.9121 69.6487 52.6697 70.0369C53.432 70.4252 54.0073 70.9697 54.3955 71.6705C54.7885 72.3665 54.985 73.1785 54.985 74.1065C54.985 75.0393 54.7862 75.849 54.3884 76.5355C53.9954 77.2173 53.4154 77.7453 52.6484 78.1193C51.8813 78.4886 50.9391 78.6733 49.8217 78.6733H45.9367V76.4858H49.4665C50.12 76.4858 50.655 76.3958 51.0717 76.2159C51.4883 76.0312 51.7961 75.7637 51.995 75.4134C52.1986 75.0582 52.3004 74.6226 52.3004 74.1065C52.3004 73.5904 52.1986 73.1501 51.995 72.7855C51.7914 72.4162 51.4812 72.1368 51.0646 71.9474C50.6479 71.7533 50.1105 71.6562 49.4523 71.6562H47.0376V84H44.4026ZM51.9168 77.4091L55.5177 84H52.5773L49.0404 77.4091H51.9168ZM63.0621 84V69.4545H64.8235V82.4375H71.5849V84H63.0621ZM77.1451 84.2557C76.4538 84.2557 75.8264 84.1255 75.263 83.8651C74.6995 83.5999 74.2521 83.2188 73.9207 82.7216C73.5892 82.2197 73.4235 81.6136 73.4235 80.9034C73.4235 80.2784 73.5466 79.7718 73.7928 79.3835C74.039 78.9905 74.3681 78.6828 74.78 78.4602C75.192 78.2377 75.6465 78.072 76.1437 77.9631C76.6456 77.8494 77.1498 77.7595 77.6565 77.6932C78.3193 77.608 78.8567 77.544 79.2687 77.5014C79.6853 77.4541 79.9884 77.3759 80.1778 77.267C80.3719 77.1581 80.469 76.9687 80.469 76.6989V76.642C80.469 75.9413 80.2772 75.3968 79.8937 75.0085C79.5149 74.6203 78.9396 74.4261 78.1678 74.4261C77.3676 74.4261 76.7403 74.6013 76.2857 74.9517C75.8312 75.3021 75.5116 75.6761 75.3269 76.0739L73.736 75.5057C74.0201 74.8428 74.3989 74.3267 74.8724 73.9574C75.3506 73.5833 75.8714 73.3229 76.4349 73.1761C77.0031 73.0246 77.5618 72.9489 78.111 72.9489C78.4614 72.9489 78.8638 72.9915 79.3184 73.0767C79.7777 73.1572 80.2204 73.3253 80.6465 73.581C81.0774 73.8366 81.4349 74.2225 81.719 74.7386C82.0031 75.2547 82.1451 75.946 82.1451 76.8125V84H80.469V82.5227H80.3837C80.2701 82.7595 80.0807 83.0128 79.8156 83.2827C79.5504 83.5526 79.1977 83.7822 78.7573 83.9716C78.317 84.161 77.7796 84.2557 77.1451 84.2557ZM77.4008 82.75C78.0637 82.75 78.6224 82.6198 79.0769 82.3594C79.5362 82.099 79.8818 81.7628 80.1138 81.3509C80.3506 80.9389 80.469 80.5057 80.469 80.0511V78.517C80.3979 78.6023 80.2417 78.6804 80.0002 78.7514C79.7635 78.8177 79.4888 78.8769 79.1763 78.929C78.8686 78.9763 78.5679 79.0189 78.2744 79.0568C77.9855 79.09 77.7512 79.1184 77.5712 79.142C77.1356 79.1989 76.7284 79.2912 76.3496 79.419C75.9756 79.5421 75.6726 79.7292 75.4406 79.9801C75.2133 80.2263 75.0996 80.5625 75.0996 80.9886C75.0996 81.571 75.3151 82.0114 75.746 82.3097C76.1816 82.6032 76.7332 82.75 77.4008 82.75ZM92.7817 75.5341L91.276 75.9602C91.1813 75.7093 91.0416 75.4654 90.857 75.2287C90.677 74.9872 90.4308 74.7884 90.1183 74.6321C89.8058 74.4759 89.4057 74.3977 88.918 74.3977C88.2504 74.3977 87.6941 74.5516 87.249 74.8594C86.8087 75.1624 86.5885 75.5483 86.5885 76.017C86.5885 76.4337 86.74 76.7628 87.043 77.0043C87.3461 77.2457 87.8196 77.447 88.4635 77.608L90.0828 78.0057C91.0582 78.2424 91.785 78.6046 92.2632 79.0923C92.7414 79.5753 92.9805 80.1979 92.9805 80.9602C92.9805 81.5852 92.8006 82.1439 92.4408 82.6364C92.0857 83.1288 91.5885 83.517 90.9493 83.8011C90.3101 84.0852 89.5667 84.2273 88.7192 84.2273C87.6065 84.2273 86.6856 83.9858 85.9564 83.5028C85.2272 83.0199 84.7656 82.3144 84.5714 81.3864L86.1624 80.9886C86.3139 81.5758 86.6003 82.0161 87.0217 82.3097C87.4479 82.6032 88.0042 82.75 88.6908 82.75C89.472 82.75 90.0923 82.5843 90.5516 82.2528C91.0156 81.9167 91.2476 81.5142 91.2476 81.0455C91.2476 80.6667 91.115 80.3494 90.8499 80.0938C90.5847 79.8333 90.1775 79.6392 89.6283 79.5114L87.8101 79.0852C86.811 78.8485 86.0771 78.4815 85.6084 77.9844C85.1444 77.4825 84.9124 76.8551 84.9124 76.1023C84.9124 75.4867 85.0852 74.9422 85.4308 74.4688C85.7812 73.9953 86.2571 73.6236 86.8584 73.3537C87.4644 73.0838 88.151 72.9489 88.918 72.9489C89.9976 72.9489 90.8451 73.1856 91.4607 73.6591C92.0809 74.1326 92.5213 74.7576 92.7817 75.5341ZM98.5639 84.2557C97.8726 84.2557 97.2452 84.1255 96.6818 83.8651C96.1183 83.5999 95.6709 83.2188 95.3394 82.7216C95.008 82.2197 94.8423 81.6136 94.8423 80.9034C94.8423 80.2784 94.9654 79.7718 95.2116 79.3835C95.4578 78.9905 95.7869 78.6828 96.1988 78.4602C96.6107 78.2377 97.0653 78.072 97.5624 77.9631C98.0643 77.8494 98.5686 77.7595 99.0752 77.6932C99.7381 77.608 100.276 77.544 100.687 77.5014C101.104 77.4541 101.407 77.3759 101.597 77.267C101.791 77.1581 101.888 76.9687 101.888 76.6989V76.642C101.888 75.9413 101.696 75.3968 101.312 75.0085C100.934 74.6203 100.358 74.4261 99.5866 74.4261C98.7864 74.4261 98.159 74.6013 97.7045 74.9517C97.2499 75.3021 96.9303 75.6761 96.7457 76.0739L95.1548 75.5057C95.4389 74.8428 95.8176 74.3267 96.2911 73.9574C96.7693 73.5833 97.2902 73.3229 97.8536 73.1761C98.4218 73.0246 98.9805 72.9489 99.5298 72.9489C99.8801 72.9489 100.283 72.9915 100.737 73.0767C101.196 73.1572 101.639 73.3253 102.065 73.581C102.496 73.8366 102.854 74.2225 103.138 74.7386C103.422 75.2547 103.564 75.946 103.564 76.8125V84H101.888V82.5227H101.802C101.689 82.7595 101.499 83.0128 101.234 83.2827C100.969 83.5526 100.616 83.7822 100.176 83.9716C99.7357 84.161 99.1983 84.2557 98.5639 84.2557ZM98.8195 82.75C99.4824 82.75 100.041 82.6198 100.496 82.3594C100.955 82.099 101.301 81.7628 101.533 81.3509C101.769 80.9389 101.888 80.5057 101.888 80.0511V78.517C101.817 78.6023 101.66 78.6804 101.419 78.7514C101.182 78.8177 100.908 78.8769 100.595 78.929C100.287 78.9763 99.9867 79.0189 99.6931 79.0568C99.4043 79.09 99.1699 79.1184 98.99 79.142C98.5544 79.1989 98.1472 79.2912 97.7684 79.419C97.3943 79.5421 97.0913 79.7292 96.8593 79.9801C96.632 80.2263 96.5184 80.5625 96.5184 80.9886C96.5184 81.571 96.7338 82.0114 97.1647 82.3097C97.6003 82.6032 98.1519 82.75 98.8195 82.75ZM108.149 69.4545V84H106.473V69.4545H108.149ZM112.745 69.4545V84H111.069V69.4545H112.745ZM115.665 84V73.0909H117.341V84H115.665ZM116.518 71.2727C116.191 71.2727 115.909 71.1615 115.672 70.9389C115.44 70.7164 115.324 70.4489 115.324 70.1364C115.324 69.8239 115.44 69.5563 115.672 69.3338C115.909 69.1113 116.191 69 116.518 69C116.844 69 117.124 69.1113 117.356 69.3338C117.592 69.5563 117.711 69.8239 117.711 70.1364C117.711 70.4489 117.592 70.7164 117.356 70.9389C117.124 71.1615 116.844 71.2727 116.518 71.2727ZM123.472 84.2557C122.78 84.2557 122.153 84.1255 121.59 83.8651C121.026 83.5999 120.579 83.2188 120.247 82.7216C119.916 82.2197 119.75 81.6136 119.75 80.9034C119.75 80.2784 119.873 79.7718 120.119 79.3835C120.366 78.9905 120.695 78.6828 121.107 78.4602C121.519 78.2377 121.973 78.072 122.47 77.9631C122.972 77.8494 123.476 77.7595 123.983 77.6932C124.646 77.608 125.183 77.544 125.595 77.5014C126.012 77.4541 126.315 77.3759 126.504 77.267C126.698 77.1581 126.796 76.9687 126.796 76.6989V76.642C126.796 75.9413 126.604 75.3968 126.22 75.0085C125.841 74.6203 125.266 74.4261 124.494 74.4261C123.694 74.4261 123.067 74.6013 122.612 74.9517C122.158 75.3021 121.838 75.6761 121.653 76.0739L120.063 75.5057C120.347 74.8428 120.725 74.3267 121.199 73.9574C121.677 73.5833 122.198 73.3229 122.761 73.1761C123.33 73.0246 123.888 72.9489 124.438 72.9489C124.788 72.9489 125.19 72.9915 125.645 73.0767C126.104 73.1572 126.547 73.3253 126.973 73.581C127.404 73.8366 127.761 74.2225 128.046 74.7386C128.33 75.2547 128.472 75.946 128.472 76.8125V84H126.796V82.5227H126.71C126.597 82.7595 126.407 83.0128 126.142 83.2827C125.877 83.5526 125.524 83.7822 125.084 83.9716C124.644 84.161 124.106 84.2557 123.472 84.2557ZM123.727 82.75C124.39 82.75 124.949 82.6198 125.403 82.3594C125.863 82.099 126.208 81.7628 126.44 81.3509C126.677 80.9389 126.796 80.5057 126.796 80.0511V78.517C126.725 78.6023 126.568 78.6804 126.327 78.7514C126.09 78.8177 125.815 78.8769 125.503 78.929C125.195 78.9763 124.894 79.0189 124.601 79.0568C124.312 79.09 124.078 79.1184 123.898 79.142C123.462 79.1989 123.055 79.2912 122.676 79.419C122.302 79.5421 121.999 79.7292 121.767 79.9801C121.54 80.2263 121.426 80.5625 121.426 80.9886C121.426 81.571 121.642 82.0114 122.073 82.3097C122.508 82.6032 123.06 82.75 123.727 82.75ZM133.057 77.4375V84H131.381V73.0909H133V74.7955H133.142C133.398 74.2415 133.786 73.7964 134.307 73.4602C134.828 73.1193 135.5 72.9489 136.324 72.9489C137.063 72.9489 137.709 73.1004 138.263 73.4034C138.817 73.7017 139.248 74.1562 139.556 74.767C139.863 75.3731 140.017 76.1402 140.017 77.0682V84H138.341V77.1818C138.341 76.3248 138.119 75.6572 137.674 75.179C137.229 74.696 136.618 74.4545 135.841 74.4545C135.306 74.4545 134.828 74.5705 134.407 74.8026C133.99 75.0346 133.661 75.3731 133.419 75.8182C133.178 76.2633 133.057 76.803 133.057 77.4375ZM152.979 84.2273C151.928 84.2273 151.021 83.9953 150.259 83.5312C149.501 83.0625 148.917 82.4091 148.505 81.571C148.097 80.7282 147.894 79.7481 147.894 78.6307C147.894 77.5133 148.097 76.5284 148.505 75.6761C148.917 74.8191 149.489 74.1515 150.223 73.6733C150.962 73.1903 151.824 72.9489 152.809 72.9489C153.377 72.9489 153.938 73.0436 154.492 73.233C155.046 73.4223 155.55 73.7301 156.005 74.1562C156.459 74.5777 156.821 75.1364 157.091 75.8324C157.361 76.5284 157.496 77.3854 157.496 78.4034V79.1136H149.087V77.6648H155.792C155.792 77.0492 155.668 76.5 155.422 76.017C155.181 75.5341 154.835 75.1529 154.385 74.8736C153.94 74.5942 153.415 74.4545 152.809 74.4545C152.141 74.4545 151.563 74.6203 151.076 74.9517C150.593 75.2784 150.221 75.7045 149.961 76.2301C149.7 76.7557 149.57 77.3191 149.57 77.9205V78.8864C149.57 79.7102 149.712 80.4086 149.996 80.9815C150.285 81.5497 150.685 81.983 151.196 82.2812C151.708 82.5748 152.302 82.7216 152.979 82.7216C153.419 82.7216 153.817 82.66 154.172 82.5369C154.532 82.4091 154.842 82.2197 155.103 81.9688C155.363 81.7131 155.564 81.3958 155.706 81.017L157.326 81.4716C157.155 82.0208 156.869 82.5038 156.466 82.9205C156.064 83.3324 155.567 83.6544 154.975 83.8864C154.383 84.1136 153.718 84.2273 152.979 84.2273ZM160.853 73.0909L163.466 77.5511L166.08 73.0909H168.012L164.489 78.5455L168.012 84H166.08L163.466 79.767L160.853 84H158.921L162.387 78.5455L158.921 73.0909H160.853ZM170.254 88.0909V73.0909H171.873V74.8239H172.072C172.195 74.6345 172.365 74.393 172.583 74.0994C172.806 73.8011 173.123 73.536 173.535 73.304C173.952 73.0672 174.515 72.9489 175.225 72.9489C176.144 72.9489 176.953 73.1785 177.654 73.6378C178.355 74.0971 178.902 74.7481 179.295 75.5909C179.688 76.4337 179.884 77.428 179.884 78.5739C179.884 79.7292 179.688 80.7306 179.295 81.5781C178.902 82.4209 178.357 83.0743 177.661 83.5384C176.965 83.9976 176.163 84.2273 175.254 84.2273C174.553 84.2273 173.992 84.1113 173.57 83.8793C173.149 83.6425 172.825 83.375 172.597 83.0767C172.37 82.7737 172.195 82.5227 172.072 82.3239H171.93V88.0909H170.254ZM171.901 78.5455C171.901 79.3693 172.022 80.0961 172.264 80.7259C172.505 81.3509 172.858 81.8409 173.322 82.196C173.786 82.5464 174.354 82.7216 175.026 82.7216C175.727 82.7216 176.312 82.5369 176.781 82.1676C177.254 81.7936 177.609 81.2917 177.846 80.6619C178.087 80.0275 178.208 79.322 178.208 78.5455C178.208 77.7784 178.09 77.0871 177.853 76.4716C177.621 75.8513 177.268 75.3613 176.795 75.0014C176.326 74.6368 175.737 74.4545 175.026 74.4545C174.345 74.4545 173.772 74.6274 173.308 74.973C172.844 75.3139 172.493 75.7921 172.256 76.4077C172.02 77.0185 171.901 77.7311 171.901 78.5455ZM186.865 84.2273C185.814 84.2273 184.907 83.9953 184.145 83.5312C183.387 83.0625 182.802 82.4091 182.391 81.571C181.983 80.7282 181.78 79.7481 181.78 78.6307C181.78 77.5133 181.983 76.5284 182.391 75.6761C182.802 74.8191 183.375 74.1515 184.109 73.6733C184.848 73.1903 185.71 72.9489 186.695 72.9489C187.263 72.9489 187.824 73.0436 188.378 73.233C188.932 73.4223 189.436 73.7301 189.891 74.1562C190.345 74.5777 190.707 75.1364 190.977 75.8324C191.247 76.5284 191.382 77.3854 191.382 78.4034V79.1136H182.973V77.6648H189.677C189.677 77.0492 189.554 76.5 189.308 76.017C189.067 75.5341 188.721 75.1529 188.271 74.8736C187.826 74.5942 187.301 74.4545 186.695 74.4545C186.027 74.4545 185.449 74.6203 184.962 74.9517C184.479 75.2784 184.107 75.7045 183.847 76.2301C183.586 76.7557 183.456 77.3191 183.456 77.9205V78.8864C183.456 79.7102 183.598 80.4086 183.882 80.9815C184.171 81.5497 184.571 81.983 185.082 82.2812C185.594 82.5748 186.188 82.7216 186.865 82.7216C187.305 82.7216 187.703 82.66 188.058 82.5369C188.418 82.4091 188.728 82.2197 188.989 81.9688C189.249 81.7131 189.45 81.3958 189.592 81.017L191.212 81.4716C191.041 82.0208 190.755 82.5038 190.352 82.9205C189.95 83.3324 189.453 83.6544 188.861 83.8864C188.269 84.1136 187.604 84.2273 186.865 84.2273ZM193.782 84V73.0909H195.401V74.7386H195.515C195.714 74.1989 196.073 73.7609 196.594 73.4247C197.115 73.0885 197.702 72.9205 198.356 72.9205C198.479 72.9205 198.633 72.9228 198.817 72.9276C199.002 72.9323 199.142 72.9394 199.236 72.9489V74.6534C199.179 74.6392 199.049 74.6179 198.846 74.5895C198.647 74.5563 198.436 74.5398 198.214 74.5398C197.683 74.5398 197.21 74.651 196.793 74.8736C196.381 75.0914 196.054 75.3944 195.813 75.7827C195.576 76.1662 195.458 76.6042 195.458 77.0966V84H193.782ZM201.073 84V73.0909H202.749V84H201.073ZM201.925 71.2727C201.599 71.2727 201.317 71.1615 201.08 70.9389C200.848 70.7164 200.732 70.4489 200.732 70.1364C200.732 69.8239 200.848 69.5563 201.08 69.3338C201.317 69.1113 201.599 69 201.925 69C202.252 69 202.531 69.1113 202.763 69.3338C203 69.5563 203.119 69.8239 203.119 70.1364C203.119 70.4489 203 70.7164 202.763 70.9389C202.531 71.1615 202.252 71.2727 201.925 71.2727ZM210.243 84.2273C209.192 84.2273 208.285 83.9953 207.523 83.5312C206.765 83.0625 206.181 82.4091 205.769 81.571C205.361 80.7282 205.158 79.7481 205.158 78.6307C205.158 77.5133 205.361 76.5284 205.769 75.6761C206.181 74.8191 206.754 74.1515 207.487 73.6733C208.226 73.1903 209.088 72.9489 210.073 72.9489C210.641 72.9489 211.202 73.0436 211.756 73.233C212.31 73.4223 212.814 73.7301 213.269 74.1562C213.723 74.5777 214.085 75.1364 214.355 75.8324C214.625 76.5284 214.76 77.3854 214.76 78.4034V79.1136H206.351V77.6648H213.056C213.056 77.0492 212.933 76.5 212.686 76.017C212.445 75.5341 212.099 75.1529 211.649 74.8736C211.204 74.5942 210.679 74.4545 210.073 74.4545C209.405 74.4545 208.827 74.6203 208.34 74.9517C207.857 75.2784 207.485 75.7045 207.225 76.2301C206.964 76.7557 206.834 77.3191 206.834 77.9205V78.8864C206.834 79.7102 206.976 80.4086 207.26 80.9815C207.549 81.5497 207.949 81.983 208.46 82.2812C208.972 82.5748 209.566 82.7216 210.243 82.7216C210.683 82.7216 211.081 82.66 211.436 82.5369C211.796 82.4091 212.106 82.2197 212.367 81.9688C212.627 81.7131 212.828 81.3958 212.97 81.017L214.59 81.4716C214.419 82.0208 214.133 82.5038 213.73 82.9205C213.328 83.3324 212.831 83.6544 212.239 83.8864C211.647 84.1136 210.982 84.2273 210.243 84.2273ZM218.836 77.4375V84H217.16V73.0909H218.779V74.7955H218.921C219.177 74.2415 219.565 73.7964 220.086 73.4602C220.607 73.1193 221.279 72.9489 222.103 72.9489C222.842 72.9489 223.488 73.1004 224.042 73.4034C224.596 73.7017 225.027 74.1562 225.335 74.767C225.642 75.3731 225.796 76.1402 225.796 77.0682V84H224.12V77.1818C224.12 76.3248 223.898 75.6572 223.452 75.179C223.007 74.696 222.397 74.4545 221.62 74.4545C221.085 74.4545 220.607 74.5705 220.185 74.8026C219.769 75.0346 219.44 75.3731 219.198 75.8182C218.957 76.2633 218.836 76.803 218.836 77.4375ZM233.141 84.2273C232.118 84.2273 231.238 83.9858 230.499 83.5028C229.76 83.0199 229.192 82.3546 228.794 81.5071C228.397 80.6596 228.198 79.6913 228.198 78.6023C228.198 77.4943 228.401 76.5166 228.809 75.669C229.22 74.8168 229.793 74.1515 230.527 73.6733C231.266 73.1903 232.128 72.9489 233.113 72.9489C233.88 72.9489 234.571 73.0909 235.186 73.375C235.802 73.6591 236.306 74.0568 236.699 74.5682C237.092 75.0795 237.336 75.6761 237.431 76.358H235.755C235.627 75.8608 235.343 75.4205 234.902 75.0369C234.467 74.6487 233.88 74.4545 233.141 74.4545C232.488 74.4545 231.915 74.625 231.422 74.9659C230.934 75.3021 230.553 75.7779 230.279 76.3935C230.009 77.0043 229.874 77.7216 229.874 78.5455C229.874 79.3883 230.006 80.1222 230.272 80.7472C230.541 81.3722 230.92 81.8575 231.408 82.2031C231.9 82.5488 232.478 82.7216 233.141 82.7216C233.577 82.7216 233.972 82.6458 234.327 82.4943C234.682 82.3428 234.983 82.125 235.229 81.8409C235.475 81.5568 235.65 81.2159 235.755 80.8182H237.431C237.336 81.4621 237.102 82.0421 236.728 82.5582C236.358 83.0696 235.868 83.4768 235.257 83.7798C234.651 84.0781 233.946 84.2273 233.141 84.2273ZM244.305 84.2273C243.254 84.2273 242.347 83.9953 241.585 83.5312C240.827 83.0625 240.242 82.4091 239.83 81.571C239.423 80.7282 239.22 79.7481 239.22 78.6307C239.22 77.5133 239.423 76.5284 239.83 75.6761C240.242 74.8191 240.815 74.1515 241.549 73.6733C242.288 73.1903 243.15 72.9489 244.134 72.9489C244.703 72.9489 245.264 73.0436 245.818 73.233C246.372 73.4223 246.876 73.7301 247.33 74.1562C247.785 74.5777 248.147 75.1364 248.417 75.8324C248.687 76.5284 248.822 77.3854 248.822 78.4034V79.1136H240.413V77.6648H247.117C247.117 77.0492 246.994 76.5 246.748 76.017C246.507 75.5341 246.161 75.1529 245.711 74.8736C245.266 74.5942 244.74 74.4545 244.134 74.4545C243.467 74.4545 242.889 74.6203 242.401 74.9517C241.918 75.2784 241.547 75.7045 241.286 76.2301C241.026 76.7557 240.896 77.3191 240.896 77.9205V78.8864C240.896 79.7102 241.038 80.4086 241.322 80.9815C241.611 81.5497 242.011 81.983 242.522 82.2812C243.034 82.5748 243.628 82.7216 244.305 82.7216C244.745 82.7216 245.143 82.66 245.498 82.5369C245.858 82.4091 246.168 82.2197 246.428 81.9688C246.689 81.7131 246.89 81.3958 247.032 81.017L248.651 81.4716C248.481 82.0208 248.195 82.5038 247.792 82.9205C247.39 83.3324 246.892 83.6544 246.301 83.8864C245.709 84.1136 245.043 84.2273 244.305 84.2273ZM252.443 84.1136C252.093 84.1136 251.792 83.9882 251.541 83.7372C251.29 83.4863 251.165 83.1856 251.165 82.8352C251.165 82.4848 251.29 82.1842 251.541 81.9332C251.792 81.6823 252.093 81.5568 252.443 81.5568C252.794 81.5568 253.094 81.6823 253.345 81.9332C253.596 82.1842 253.722 82.4848 253.722 82.8352C253.722 83.0672 253.662 83.2803 253.544 83.4744C253.43 83.6686 253.277 83.8248 253.082 83.9432C252.893 84.0568 252.68 84.1136 252.443 84.1136Z" fill="#154200"/>
</svg>
